<svg width="123" height="142" viewBox="0 0 123 142" fill="none" xmlns="http://www.w3.org/2000/svg">
<path d="M14.5392 117.448L9.96685 123.383L17.2018 125.329C22.5761 126.774 26.7851 128.542 31.0007 130.314C32.5405 130.961 34.0812 131.608 35.6798 132.24C41.5711 134.57 47.7403 136.431 55.7725 135.993C63.9959 135.544 72.1445 131.791 78.8098 127.888C83.7541 124.993 88.3548 121.713 91.756 119.288C92.9321 118.449 93.9648 117.713 94.8187 117.13L98.1454 114.859L96.6353 111.125C96.229 110.121 95.7367 109.027 95.0482 107.977C96.7682 105.97 97.7983 103.62 98.6837 101.25L100.532 96.3029L95.4914 94.7276L91.8035 93.5751C91.9488 92.4454 92.0185 91.3337 92.0072 90.2001C91.9995 89.4275 91.9542 88.6664 91.8771 87.9059C95.5034 87.3316 98.6822 86.3666 101.603 84.7706C105.932 82.4051 109.201 78.9204 112.507 74.4907L115.556 70.4054L111.413 67.4359C107.608 64.7091 105.265 62.5639 103.478 60.3038C102.316 58.8331 101.313 57.218 100.291 55.1954C102.231 53.5523 103.725 51.6698 104.746 49.371C106.242 46.0003 106.447 42.2763 106.499 38.571L106.59 32.1802L100.365 33.6304C95.7814 34.6984 92.6891 35.1468 89.7794 34.9635C87.4244 34.8151 84.9456 34.2344 81.7179 32.8978C81.7495 31.7031 82.3112 29.7038 84.1075 25.442L87.1764 18.1607L79.2823 18.5047C70.7334 18.8773 64.8566 19.7603 58.1573 21.7554C57.8232 19.0694 56.7055 16.5685 55.41 14.1438L52.2737 8.27364L47.509 12.9205C41.3949 18.8834 37.8337 21.4632 32.6517 23.7936C31.2785 22.9986 29.7512 22.4261 27.9598 22.0925C25.1877 21.5764 21.9536 21.671 18.0544 22.0199L14.4579 22.3417L13.6324 25.8569C11.6201 34.426 10.4167 41.9281 9.88076 49.1289C8.8273 63.282 10.3819 75.9873 13.081 92.8142L9.5 95.5L6.48161 97.7638L7.83042 101.287C9.04531 104.461 10.4779 107.366 13.0439 109.938C14.352 111.249 15.861 112.381 17.6065 113.417C16.7776 114.533 15.7906 115.824 14.5392 117.448Z" stroke="url(#paint0_linear_1_6)" stroke-width="10"/>
<defs>
<linearGradient id="paint0_linear_1_6" x1="60.5" y1="16.5" x2="60.5" y2="131.057" gradientUnits="userSpaceOnUse">
<stop stop-color="#0060FF"/>
<stop offset="1" stop-color="#00FFF7"/>
</linearGradient>
</defs>
</svg>
